<svg width="150" height="100" viewBox="0 0 150 100" fill="none" xmlns="http://www.w3.org/2000/svg">
<ellipse cx="59.5" cy="52" rx="59.5" ry="47" fill="#DCDCFF" fill-opacity="0.5"/>
<path d="M111.642 87.7181C113.709 85.2432 113.383 82.6178 112.934 79.8694C110.351 64.3771 107.876 48.8711 105.306 33.3925C105.075 31.9978 104.585 30.521 103.824 29.3451C102.26 26.9522 99.1462 26.1454 96.4539 27.1299C93.6528 28.1555 91.8987 30.7398 92.1979 33.8027C92.4698 36.6195 93.0137 39.4226 93.476 42.5812C91.1373 42.1847 88.9753 41.7061 86.7861 41.46C81.0887 40.831 75.3777 40.3798 69.6804 39.7097C67.328 39.4363 66.6073 40.4481 66.1858 42.6086C64.8804 49.4181 63.3167 56.1865 61.9434 62.9824C61.2363 66.4828 59.1966 68.657 55.8652 69.7645C47.5979 72.5129 39.3306 75.3024 31.0769 78.0781C30.397 78.3106 29.7444 78.5704 29.1189 78.8028C29.1189 79.6506 29.1189 80.3753 29.1189 81.0864C29.1597 84.6278 27.0521 87.6771 23.775 88.812C20.5932 89.9196 16.9491 88.9761 14.9774 86.173C13.0602 83.4382 11.2517 80.5804 9.75598 77.5859C7.56678 73.1693 9.89196 68.3014 14.8279 66.6059C23.0136 63.8028 31.2129 61.0954 39.4122 58.3333C41.955 57.4719 45.2048 57.2121 46.7821 55.4618C48.3458 53.7116 48.2506 50.4299 48.8217 47.7909C50.2359 41.2275 51.6772 34.6641 53.0098 28.0871C54.3287 21.6468 57.9321 18.16 64.3909 17.1618C76.248 15.3295 87.8603 16.2867 99.2278 20.1837C105.755 22.4262 109.861 26.6514 110.976 33.7343C113.505 49.8283 116.225 65.8812 118.835 81.9615C119.543 86.2824 116.211 89.1402 111.67 87.7181H111.642Z" stroke="#0022D4" stroke-width="5" stroke-miterlimit="10"/>
<path d="M68.3405 41.2916C71.8222 41.5224 75.4258 41.726 79.0023 42.0383C79.5578 42.0926 80.1539 42.6086 80.6009 43.0431C83.202 45.5685 85.7761 48.1076 88.323 50.6874C91.2086 53.6201 91.6963 56.7566 89.7996 60.3954C85.7354 68.1619 81.6305 75.9148 77.5121 83.6405C75.2226 87.9311 70.8197 89.4246 66.9045 87.3201C63.0029 85.2291 61.8107 80.7621 64.0596 76.4443C66.9181 70.9861 69.7088 65.5007 72.757 60.151C73.8137 58.2909 73.6376 57.1368 72.0119 55.9827C71.7274 55.779 71.4971 55.4803 71.2397 55.2223C67.4374 51.4568 66.4755 46.8041 68.3541 41.2644L68.3405 41.2916Z" fill="#0022D5"/>
<path d="M126.396 6.26449C134.453 6.23692 140.999 12.8115 140.93 20.8471C140.861 28.8414 134.412 35.2644 126.437 35.2644C118.338 35.2644 111.903 28.8001 111.93 20.6817C111.958 12.6875 118.379 6.29206 126.396 6.26449Z" fill="#0022D5"/>
<path d="M91.9303 34.636C91.9303 31.7295 93.8733 29.5463 96.513 29.287C99.0723 29.0414 101.39 30.8153 101.873 33.5989C102.905 39.5619 103.856 45.5248 104.821 51.5014C106.482 61.7899 108.131 72.0783 109.805 82.3668C110.382 85.9145 108.935 88.5754 106.054 89.1485C102.958 89.7625 100.506 87.9067 99.9165 84.3181C97.2634 68.1349 94.6638 51.9517 92.0375 35.7685C91.9705 35.3319 91.9437 34.8952 91.9303 34.6496V34.636Z" fill="#0022D4"/>
<path d="M118.93 99.2229C119.624 98.1892 120.074 97.482 120.564 96.7884C127.914 86.52 135.373 76.306 142.574 65.9288C144.275 63.4671 146.113 62.855 148.93 63.5079C148.617 64.1063 148.359 64.6775 148.032 65.1943C141.417 75.9523 134.761 86.6968 128.186 97.4684C127.424 98.706 126.634 99.3725 125.096 99.2501C123.177 99.1004 121.231 99.2093 118.93 99.2093V99.2229Z" fill="#0022D4"/>
</svg>
