<svg width="119" height="120" viewBox="0 0 119 120" fill="none" xmlns="http://www.w3.org/2000/svg">
<ellipse cx="59.5" cy="74.4111" rx="59.5" ry="45.4111" fill="#DCDCFF" fill-opacity="0.5"/>
<g clip-path="url(#clip0_53_182)">
<path d="M97.3886 24.171C93.06 25.7824 89.051 27.2355 85.071 28.8037C84.6788 28.962 84.3883 29.8109 84.3737 30.3432C84.3011 33.3358 84.3737 36.3284 84.3302 39.3066C84.1413 52.7158 73.407 63.2187 59.9273 63.1756C46.5639 63.1468 35.8731 52.6295 35.7133 39.321C35.6843 36.5874 35.6116 33.8538 35.7424 31.1201C35.815 29.5519 35.3357 28.775 33.7669 28.2282C28.6249 26.4442 23.541 24.4875 18.4425 22.5739C16.1184 21.7107 15.0581 20.4734 15.1452 18.6461C15.2469 16.5743 16.5832 15.5672 18.428 14.891C31.53 10.0568 44.6029 5.12185 57.734 0.373962C59.0994 -0.115214 60.9732 -0.115214 62.3386 0.373962C75.6003 5.16501 88.7895 10.1143 102.008 15.0349C104.114 15.8118 105.014 17.0491 105.014 19.1785C105.014 28.0124 104.985 36.8608 104.971 45.6947C104.971 46.2702 104.956 46.8457 104.84 47.4068C104.463 49.306 102.865 50.5721 101.02 50.5001C99.0881 50.4282 97.5774 48.9463 97.4177 46.9464C97.3741 46.3709 97.3886 45.7954 97.3886 45.2343C97.3886 39.0045 97.3886 32.7747 97.3886 26.5305V24.171ZM29.9467 18.6605C30.5858 18.9914 30.7892 19.1353 31.0216 19.2216C40.3324 22.6746 49.6288 26.1564 58.9687 29.5519C59.6659 29.8109 60.6246 29.7533 61.3218 29.4943C70.4002 26.1708 79.4641 22.7754 88.528 19.3943C88.9638 19.236 89.356 18.9914 90.0823 18.6461C80.0742 14.9342 70.4147 11.3229 60.7262 7.78355C60.1597 7.58212 59.3463 7.76916 58.7217 7.98497C55.468 9.15036 52.2288 10.3733 48.9896 11.5819C42.7437 13.8982 36.5122 16.2146 29.9467 18.6605ZM76.9222 31.7676C71.8963 33.6236 67.4225 35.1918 63.0358 36.9327C61.0022 37.7384 59.1575 37.796 57.1094 36.9615C53.2601 35.3932 49.3092 34.0264 45.4018 32.5877C44.7772 32.3575 44.1381 32.1992 43.2956 31.9402C43.2956 34.7026 43.223 37.1773 43.2956 39.6519C43.5861 47.9536 50.05 54.8883 58.1116 55.5933C66.9577 56.3703 74.6562 51.0613 76.2976 42.6014C76.9512 39.2203 76.7188 35.681 76.9076 31.782L76.9222 31.7676Z" fill="#0022D4"/>
<path d="M15.0872 99.3603C14.6659 92.8284 15.7263 86.6705 19.808 81.2896C25.6617 73.5778 33.7234 69.1896 42.9035 66.6862C45.9684 65.8517 48.7428 66.902 50.9942 69.1465C53.4926 71.6211 56.0055 74.0814 58.4313 76.6136C59.5933 77.8222 60.4794 77.7934 61.6269 76.6136C64.0091 74.1246 66.4929 71.7219 68.9332 69.276C71.5768 66.6287 74.6998 65.8661 78.2876 66.974C86.2766 69.4342 93.4377 73.2469 98.9429 79.6638C102.923 84.2966 104.985 89.6487 104.956 95.7634C104.956 98.756 104.985 101.749 104.956 104.727C104.913 107.417 103.417 109.029 101.093 109C98.7686 108.971 97.4032 107.374 97.3887 104.612C97.3741 102.195 97.2725 99.7775 97.4032 97.3604C97.8099 90.2962 94.6143 85.0015 89.2544 80.7428C85.4487 77.7215 81.1201 75.664 76.4574 74.3116C75.7457 74.1102 74.54 74.4555 73.9735 74.9734C71.4897 77.2754 69.1656 79.7357 66.7398 82.1097C62.6001 86.1669 57.4 86.1526 53.2747 82.0953C50.8635 79.7213 48.5249 77.2611 46.0555 74.9447C45.5181 74.4411 44.4142 74.067 43.746 74.2684C37.7615 76.0381 32.2999 78.7861 27.9422 83.3326C24.4271 86.987 22.4952 91.2745 22.655 96.4109C22.7421 99.274 22.6985 102.137 22.655 105C22.6259 107.432 21.1443 108.971 18.9364 108.986C16.7576 109 15.247 107.46 15.1017 105.072C15.1017 104.943 15.1017 104.813 15.1017 104.684C15.1017 102.9 15.1017 101.116 15.1017 99.3459L15.0872 99.3603Z" fill="#0022D4"/>
<path d="M76.9368 31.7678C76.7479 35.6668 76.9803 39.2206 76.3267 42.5872C74.6708 51.0327 66.9868 56.3417 58.1408 55.5792C50.0791 54.8742 43.6153 47.9394 43.3247 39.6378C43.2376 37.1631 43.3247 34.7029 43.3247 31.9261C44.1672 32.185 44.8209 32.3577 45.4309 32.5735C49.3383 34.0123 53.2747 35.3791 57.1385 36.9473C59.1866 37.7818 61.0313 37.7242 63.0649 36.9185C67.4661 35.1777 71.9255 33.6094 76.9513 31.7534L76.9368 31.7678Z" fill="#0022D4"/>
</g>
<defs>
<clipPath id="clip0_53_182">
<rect width="90" height="109" fill="white" transform="translate(15)"/>
</clipPath>
</defs>
</svg>
