<svg width="119" height="112" viewBox="0 0 119 112" fill="none" xmlns="http://www.w3.org/2000/svg">
<ellipse cx="51.7921" cy="44.407" rx="51.7921" ry="44.407" transform="matrix(0.990007 -0.141019 0.150839 0.988558 0 23.3962)" fill="#DCDCFF" fill-opacity="0.5"/>
<g clip-path="url(#clip0_55_212)">
<path d="M62.7267 0C63.4467 0.14 64.1567 0.27 64.8767 0.42C70.3467 1.54 74.8167 4.3 77.7767 9.04C78.9067 10.86 80.0967 11.29 82.0867 11.29C88.5467 11.3 93.2767 14.31 95.8167 20.27C96.6167 22.14 96.9267 24.33 96.9567 26.38C97.0867 34.36 97.0067 42.35 97.0067 50.34C97.0067 50.95 97.0067 51.57 97.0067 52.37C103.387 51.19 108.937 52.56 113.417 57.21C116.547 60.45 118.057 64.38 118.117 68.89C118.227 77.25 111.207 86.56 99.2767 85.81V91.69C101.717 91.69 104.127 91.69 106.547 91.69C107.117 91.69 107.787 91.52 108.217 91.76C108.817 92.1 109.617 92.75 109.647 93.29C109.667 93.85 108.947 94.57 108.367 94.96C107.967 95.23 107.267 95.09 106.707 95.09C76.4067 95.09 46.0967 95.09 15.7967 95.09C15.4567 95.09 15.1167 95.09 14.7767 95.09C13.6067 95.04 12.7367 94.55 12.7867 93.28C12.8367 92.11 13.6767 91.68 14.7867 91.69C17.5567 91.7 20.3167 91.69 23.2167 91.69V73.75C21.6067 73.75 19.9867 73.77 18.3667 73.75C15.7767 73.72 14.4967 72.47 14.4667 69.89C14.4467 67.51 14.4367 65.13 14.4667 62.75C14.4967 60.34 15.7467 59.1 18.1467 59.07C20.4567 59.04 22.7767 59.07 25.2867 59.07C25.3267 58.31 25.3867 57.67 25.3867 57.02C25.3867 46.94 25.3867 36.86 25.3867 26.77C25.3967 17.38 31.5467 11.22 40.9467 11.28C42.5967 11.29 43.4967 10.82 44.4067 9.37C47.6967 4.18 52.4767 1.2 58.5367 0.29C58.9167 0.23 59.2967 0.1 59.6667 0C60.6867 0 61.7067 0 62.7267 0ZM95.7367 91.61C95.7367 89.74 95.6667 88.04 95.7567 86.35C95.8167 85.28 95.4367 84.76 94.4467 84.34C90.2367 82.54 87.2467 79.47 85.5567 75.23C85.0667 73.99 84.4467 73.71 83.2167 73.72C65.0367 73.76 46.8667 73.75 28.6867 73.75H26.9267V91.61H95.7467H95.7367ZM77.7767 20.15C77.8167 10.96 70.3667 3.47 61.1967 3.49C52.1567 3.51 44.7267 10.87 44.6667 19.86C44.6067 29.12 51.9067 36.61 61.0767 36.68C70.2767 36.75 77.7367 29.36 77.7767 20.15ZM85.1567 62.63H18.0067V70.22H84.0267C84.4267 67.58 84.7967 65.08 85.1567 62.63ZM41.8067 14.83C34.9667 13.65 28.9167 18.89 28.8667 26.18C28.8067 35.18 28.8467 44.18 28.8667 53.19C28.8667 53.54 28.9667 53.88 29.0567 54.52C34.6267 46.02 42.1167 40.56 51.7667 37.84C44.1967 33.22 39.6167 25.39 41.8167 14.84L41.8067 14.83ZM80.6367 14.82C82.5667 24.64 79.3567 32.32 70.6667 37.86C80.3167 40.49 87.6567 45.97 93.2567 54.22C93.4567 53.63 93.5867 53.42 93.5867 53.22C93.5867 43.83 93.7767 34.43 93.4967 25.05C93.2967 18.46 87.2467 13.87 80.6367 14.81V14.82ZM101.267 82.37C108.717 82.35 114.757 76.26 114.727 68.81C114.697 61.37 108.617 55.35 101.147 55.37C93.7167 55.38 87.6367 61.5 87.6867 68.93C87.7367 76.39 93.7967 82.4 101.267 82.37ZM56.0967 40.68C46.6167 41.04 32.2967 51.48 30.8067 58.94H50.3667C52.3167 52.74 54.1967 46.75 56.0967 40.68ZM72.1167 59.06C76.7767 59.06 81.6367 59.06 86.5067 59.04C86.9167 59.04 87.4367 58.89 87.7067 58.62C88.5767 57.76 89.3467 56.8 90.1967 55.83C84.4167 47.39 76.6167 42.26 66.2967 40.48C68.2767 46.8 70.1567 52.82 72.1067 59.06H72.1167ZM61.1167 59.06C62.6967 59.06 64.2867 59.08 65.8667 59.06C67.6067 59.03 68.2867 58.07 67.7667 56.43C66.1867 51.42 64.5667 46.43 63.0167 41.42C62.7267 40.47 62.3167 40.05 61.2567 40.08C60.2667 40.1 59.7667 40.36 59.4567 41.37C57.9067 46.44 56.2567 51.49 54.6567 56.55C54.1767 58.06 54.9067 59.03 56.5467 59.07C58.0767 59.1 59.5967 59.07 61.1267 59.07L61.1167 59.06Z" fill="#0022D5"/>
<path d="M77.7766 20.15C77.7366 29.36 70.2766 36.75 61.0766 36.68C51.9066 36.61 44.6066 29.12 44.6666 19.86C44.7266 10.87 52.1566 3.51003 61.1966 3.49003C70.3566 3.47003 77.8066 10.96 77.7766 20.15Z" fill="#0022D5"/>
<path d="M56.0966 40.6799C54.1866 46.7499 52.3066 52.7399 50.3666 58.9399H30.8066C32.2966 51.4799 46.6166 41.0399 56.0966 40.6799Z" fill="white"/>
<path d="M72.1166 59.07C70.1666 52.83 68.2866 46.82 66.3066 40.49C76.6266 42.28 84.4266 47.4 90.2066 55.84C89.3566 56.81 88.5766 57.76 87.7166 58.63C87.4466 58.9 86.9266 59.05 86.5166 59.05C81.6466 59.08 76.7766 59.07 72.1266 59.07H72.1166Z" fill="white"/>
<path d="M61.1168 59.07C59.5868 59.07 58.0667 59.09 56.5367 59.07C54.9067 59.04 54.1768 58.06 54.6468 56.55C56.2468 51.49 57.8967 46.45 59.4467 41.37C59.7567 40.36 60.2567 40.1 61.2467 40.08C62.2967 40.06 62.7068 40.47 63.0068 41.42C64.5568 46.44 66.1768 51.43 67.7568 56.43C68.2768 58.08 67.5967 59.03 65.8567 59.06C64.2767 59.09 62.6967 59.06 61.1067 59.06L61.1168 59.07Z" fill="white"/>
<path d="M98.9568 67.33C100.877 65.38 102.727 63.48 104.607 61.61C106.777 59.45 109.297 59.29 111.207 61.13C113.077 62.94 112.967 65.6299 110.877 67.7399C108.057 70.5899 105.217 73.44 102.357 76.26C100.277 78.31 97.8868 78.43 95.7268 76.5C94.0868 75.03 92.5268 73.4599 91.0368 71.8399C89.4168 70.0799 89.5168 67.5099 91.1368 65.8499C92.7968 64.1599 95.3968 64.09 97.2568 65.7099C97.8068 66.1899 98.3168 66.71 98.9568 67.33ZM99.1068 74.48C99.4168 74.23 99.8368 73.96 100.177 73.62C102.867 70.95 105.577 68.29 108.197 65.54C108.617 65.1 108.587 64.24 108.757 63.57C108.097 63.79 107.267 63.8399 106.807 64.2699C104.657 66.2799 102.627 68.42 100.527 70.48C99.2268 71.75 98.5468 71.74 97.2268 70.48C96.4468 69.74 95.7268 68.92 94.8968 68.25C94.6368 68.04 93.9568 68.0399 93.7168 68.2399C93.4768 68.4299 93.3368 69.1999 93.5068 69.3799C95.1068 71.0499 96.7868 72.65 98.4568 74.26C98.5668 74.37 98.7668 74.37 99.1068 74.48Z" fill="#0022D5"/>
<path d="M99.1066 74.4801C98.7666 74.3701 98.5566 74.3701 98.4566 74.2601C96.7866 72.6501 95.1166 71.0501 93.5066 69.3801C93.3366 69.2001 93.4766 68.4301 93.7166 68.2401C93.9666 68.0401 94.6466 68.0501 94.8966 68.2501C95.7266 68.9201 96.4466 69.7401 97.2266 70.4801C98.5466 71.7401 99.2366 71.7601 100.527 70.4801C102.627 68.4101 104.657 66.2801 106.807 64.2701C107.267 63.8401 108.097 63.7901 108.757 63.5701C108.577 64.2401 108.617 65.1001 108.197 65.5401C105.577 68.2901 102.867 70.9401 100.177 73.6201C99.8266 73.9601 99.4166 74.2301 99.1066 74.4801Z" fill="white"/>
</g>
<defs>
<clipPath id="clip0_55_212">
<rect width="105.33" height="95.13" fill="white" transform="translate(12.8066)"/>
</clipPath>
</defs>
</svg>
