<svg width="138" height="120" viewBox="0 0 138 120" fill="none" xmlns="http://www.w3.org/2000/svg">
<ellipse cx="59.3937" cy="45.4978" rx="59.3937" ry="45.4978" transform="matrix(0.974515 0.224324 -0.23941 0.970919 21.7854 5)" fill="#DCDCFF" fill-opacity="0.5"/>
<g clip-path="url(#clip0_54_198)">
<path d="M101.06 44.2027C97.8404 44.2027 94.9243 44.1736 92.0081 44.2465C91.6039 44.2465 91.0264 44.6835 90.8388 45.0769C89.1353 48.6026 86.6955 51.4873 83.6061 53.7893C82.2635 54.78 82.6678 56.0766 82.8554 57.1984C82.9565 57.8103 83.8949 58.466 84.6022 58.7719C89.4384 60.8553 94.5778 60.36 99.6594 60.3745C103.139 60.3745 104.337 61.3652 105.203 64.8036C105.304 65.1969 105.723 65.6049 106.084 65.8088C111.627 68.8538 114.457 73.4431 114.413 79.9118C114.37 86.1474 114.601 92.3684 114.688 98.604C114.745 102.698 112.45 105.029 108.379 105.029C84.7033 105.029 61.0276 105.029 37.3518 105.029C33.2952 105.029 30.9565 102.683 31.0142 98.6332C31.1008 91.8585 31.1586 85.0838 31.3607 78.3092C31.5195 73.006 34.2336 69.1452 38.6222 66.4353C39.3729 65.9691 39.7627 65.532 39.8204 64.5559C39.9792 62.1665 41.8271 60.5056 44.2669 60.4328C46.158 60.3745 48.0636 60.3162 49.9548 60.4328C53.7949 60.6805 57.5195 60.1268 61.1142 58.8011C61.7927 58.5534 62.7311 57.9415 62.8032 57.3878C62.962 56.2514 63.5106 54.8674 62.1825 53.9349C61.6916 53.5999 61.2441 53.1919 60.7966 52.7986C56.61 49.0397 53.6072 44.6398 53.4629 38.579C50.4457 38.3605 49.3918 36.35 49.0886 33.6255C48.9443 32.3289 48.5112 31.0468 48.4823 29.7501C48.4679 28.7011 48.6122 27.4628 49.1753 26.6469C49.9693 25.5105 50.1136 24.4178 50.0992 23.1357C50.0703 19.4789 50.0559 15.8074 50.0992 12.1506C50.1569 5.09909 55.2241 0.0290217 62.1536 -0.00011661C69.2563 -0.0146858 76.3446 -0.00011661 83.4473 -0.00011661C88.399 -0.00011661 92.0947 2.19983 94.3613 6.62886C94.8521 7.59042 95.4729 7.61956 96.3102 7.61956C106.329 7.61956 116.362 7.61956 126.381 7.61956C132.156 7.61956 135 10.4751 135 16.2591C135 22.8152 135 29.3713 135 35.942C135 41.2015 132.055 44.1736 126.843 44.2027C123.869 44.2173 120.881 44.1445 117.907 44.2465C117.113 44.2756 116.204 44.567 115.554 45.0478C111.772 47.8887 108.047 50.8026 104.322 53.7164C103.167 54.6197 101.984 55.1588 100.612 54.27C99.1975 53.3522 99.1108 52.0264 99.5295 50.5112C100.078 48.5152 100.511 46.4901 101.06 44.2173V44.2027ZM72.5478 63.4195C63.4529 63.4195 54.3579 63.4195 45.263 63.4195C43.2708 63.4195 42.7222 63.9148 42.8377 65.5903C43.5162 75.1185 44.1947 84.6613 44.8876 94.1896C45.0464 96.3749 45.2774 96.5789 47.4573 96.5789C64.1314 96.5789 80.8199 96.5789 97.494 96.5789C99.6594 96.5789 99.9048 96.3749 100.064 94.175C100.742 84.8653 101.377 75.541 102.07 66.2313C102.244 63.8857 101.883 63.4195 99.5295 63.4195C90.5356 63.4195 81.5562 63.4195 72.5623 63.4195H72.5478ZM58.7755 21.6642C58.7755 23.4708 58.9198 25.292 58.7177 27.0694C58.6167 27.9144 57.8804 28.672 57.4329 29.4733C57.173 29.925 56.6822 30.362 56.6822 30.8137C56.61 33.4361 56.6966 36.0586 56.6389 38.681C56.5811 41.1286 57.2452 43.3286 58.5156 45.3537C61.0709 49.4476 64.6078 52.4343 68.982 54.3575C70.9743 55.2316 73.0531 55.5958 75.1608 54.8819C81.0364 52.9151 85.454 49.1563 88.1536 43.5034C88.7311 42.3088 89.0487 40.8955 89.1064 39.5552C89.2508 36.6122 89.1786 33.6547 89.1353 30.6971C89.1353 30.3038 88.8465 29.7064 88.5434 29.5753C87.1719 29.0362 86.9121 27.9873 86.9265 26.676C86.9554 23.3397 86.9265 20.0034 86.9409 16.667C86.9409 15.2101 86.4645 13.8115 85.0786 13.5638C82.4079 13.083 79.665 12.5294 77.153 14.4525C74.7277 16.3028 71.8404 16.6961 69.4151 14.9041C67.0475 13.1558 64.6222 13.1558 62.0381 13.2433C59.9593 13.3161 58.8621 14.4525 58.8043 16.565C58.761 18.2551 58.8043 19.9596 58.8043 21.6497L58.7755 21.6642ZM102.576 51.0503C103.297 50.5403 103.73 50.2489 104.149 49.9284C107.542 47.306 110.905 44.6252 114.356 42.0756C115.121 41.5074 116.204 41.1432 117.142 41.1141C120.39 40.9975 123.638 41.0704 126.901 41.0704C130.351 41.0704 131.882 39.5406 131.882 36.0877C131.882 29.3568 131.882 22.6404 131.882 15.9094C131.882 12.2234 130.423 10.7519 126.742 10.7519C116.94 10.7519 107.123 10.7519 97.3207 10.7519C96.801 10.7519 96.2813 10.8102 95.6605 10.8393C95.6605 14.9041 95.6605 18.8378 95.6605 22.7569C95.6605 24.1701 95.7183 25.4522 96.5989 26.7634C97.2197 27.6813 97.1619 29.1382 97.1619 30.362C97.1619 31.4402 96.7866 32.5037 96.6422 33.5964C96.2957 36.2625 95.2996 38.3605 92.1958 38.5062V41.0849C95.5306 41.0849 98.8221 41.0849 102.114 41.0849C104.337 41.0849 104.828 41.7406 104.294 43.9114C103.745 46.1841 103.196 48.4424 102.561 51.0648L102.576 51.0503ZM89.9581 25.3794C92.0226 25.3065 92.7011 24.4615 92.6 22.5092C92.4268 19.0272 92.6 15.516 92.5423 12.0194C92.4701 6.90567 88.9476 3.17596 83.866 3.10312C76.5034 2.98656 69.1264 2.98656 61.7638 3.10312C57.2885 3.17596 53.6072 6.2792 53.2896 10.6208C52.9432 15.2829 53.2175 19.9888 53.2175 24.7092C54.0259 24.9714 54.791 25.2045 55.7294 25.5105C55.7294 22.3781 55.7005 19.3914 55.7294 16.4048C55.7583 13.6803 56.9709 11.3784 59.5406 10.7082C63.1497 9.7758 66.9032 9.30958 70.2524 11.8883C72.0425 13.2724 73.7749 13.2141 75.6083 11.7718C77.052 10.6499 78.6111 10.0817 80.4301 10.1546C81.3974 10.1983 82.379 10.1546 83.3607 10.1546C87.504 10.1837 89.9293 12.5876 89.9581 16.7544C89.987 19.5954 89.9581 22.4364 89.9581 25.3502V25.3794ZM106.459 101.751C110.025 102.377 111.844 101.547 111.671 97.555C111.396 91.232 111.512 84.8944 111.237 78.5714C111.165 76.794 110.53 74.9437 109.779 73.2974C108.841 71.2577 107.109 69.8882 104.943 68.6789C104.265 78.1926 103.615 87.3712 102.965 96.5935C105.564 97.3365 106.56 99.2014 106.459 101.736V101.751ZM40.0081 69.1015C36.6589 71.3305 34.58 74.0987 34.4501 77.9158C34.2047 84.9527 34.1325 91.9896 34.0459 99.0265C34.0314 100.702 34.9987 101.722 36.5867 101.882C37.4817 101.97 38.3912 101.897 39.3874 101.897C39.0842 99.4199 40.0081 97.7736 42.0003 96.7975C41.3507 87.6334 40.7011 78.5423 40.0226 69.0869L40.0081 69.1015ZM72.9665 99.6967C63.5972 99.6967 54.2424 99.6967 44.8732 99.6967C44.4401 99.6967 43.9493 99.5656 43.5884 99.7404C43.1264 99.959 42.7799 100.425 42.3757 100.789C42.7655 101.168 43.112 101.62 43.5595 101.882C43.8482 102.042 44.2957 101.926 44.6855 101.926C63.4673 101.926 82.2491 101.926 101.031 101.926C101.522 101.926 102.07 101.999 102.46 101.795C102.821 101.605 103.225 101.081 103.196 100.731C103.182 100.381 102.706 99.9298 102.33 99.7696C101.912 99.5947 101.377 99.6967 100.887 99.6967C91.575 99.6967 82.2635 99.6967 72.952 99.6967H72.9665ZM65.1131 60.2143H80.5456C80.1558 58.9467 79.8093 57.7812 79.4051 56.47C75.0309 58.903 70.6133 58.8885 66.2824 56.47C65.8782 57.7666 65.5028 58.9467 65.1131 60.1997V60.2143ZM92.1525 35.4758C93.4951 34.4997 94.6933 29.1237 93.957 28.2204C93.7549 27.9581 93.1919 27.8124 92.8599 27.8998C92.5711 27.9727 92.1814 28.4389 92.1814 28.7449C92.1236 30.8865 92.1525 33.0428 92.1525 35.4758ZM53.4773 35.2864C53.4773 32.9845 53.5062 30.77 53.4484 28.57C53.4484 28.3223 53.0442 27.9435 52.7699 27.8853C52.4668 27.8124 51.9904 27.9144 51.7738 28.1329C50.9365 28.9925 52.1636 34.5725 53.4773 35.2864Z" fill="#0022D5"/>
<path d="M58.7754 21.6644C58.7754 19.9744 58.7321 18.2698 58.7754 16.5798C58.8331 14.4673 59.9303 13.3309 62.0091 13.258C64.5933 13.1706 67.033 13.1706 69.3862 14.9189C71.8115 16.7109 74.6988 16.3175 77.1241 14.4673C79.636 12.5441 82.3934 13.0978 85.0497 13.5785C86.4356 13.8262 86.9264 15.2394 86.912 16.6818C86.8831 20.0181 86.9264 23.3545 86.8975 26.6908C86.8975 28.002 87.143 29.0364 88.5144 29.5901C88.8176 29.7066 89.0919 30.3185 89.1063 30.7119C89.1496 33.6694 89.2218 36.6124 89.0774 39.5699C89.0053 40.8957 88.7021 42.3235 88.1246 43.5182C85.425 49.171 81.0219 52.9153 75.1318 54.8967C73.0241 55.596 70.9309 55.2464 68.9531 54.3722C64.5644 52.4491 61.0419 49.4624 58.4867 45.3685C57.2162 43.3434 56.5522 41.1288 56.6099 38.6958C56.6821 36.0733 56.581 33.4509 56.6532 30.8284C56.6532 30.3768 57.1585 29.9397 57.4039 29.4881C57.8515 28.6868 58.6021 27.9292 58.6888 27.0842C58.8909 25.3067 58.7465 23.4856 58.7465 21.679L58.7754 21.6644Z" fill="white"/>
<path d="M102.576 51.0648C103.211 48.4424 103.759 46.1842 104.308 43.9114C104.828 41.7406 104.337 41.0995 102.128 41.085C98.8365 41.085 95.545 41.085 92.2102 41.085V38.5062C95.314 38.346 96.2957 36.2626 96.6566 33.5964C96.801 32.5183 97.1763 31.4402 97.1763 30.3621C97.1763 29.1382 97.2196 27.6813 96.6133 26.7635C95.7327 25.4522 95.6749 24.1702 95.6749 22.7569C95.6749 18.8233 95.6749 14.9042 95.6749 10.8394C96.2957 10.8102 96.8154 10.752 97.3351 10.752C107.137 10.752 116.954 10.752 126.757 10.752C130.438 10.752 131.896 12.2234 131.896 15.9094C131.896 22.6404 131.896 29.3568 131.896 36.0877C131.896 39.5406 130.351 41.0558 126.915 41.0704C123.667 41.0704 120.405 40.9975 117.156 41.1141C116.204 41.1432 115.135 41.5075 114.37 42.0757C110.92 44.6253 107.556 47.306 104.164 49.9284C103.745 50.249 103.312 50.5404 102.59 51.0503L102.576 51.0648ZM116.911 18.6193C117.099 18.4153 117.272 18.2259 117.46 18.022C117.041 17.8908 116.593 17.614 116.189 17.6577C115.742 17.716 115.092 17.9346 114.919 18.2842C112.739 22.6695 110.617 27.0694 108.538 31.513C108.379 31.8481 108.769 32.4309 108.899 32.8971C109.361 32.7514 109.823 32.6057 110.27 32.4309C110.342 32.4017 110.371 32.2415 110.429 32.1541C112.522 27.8416 114.601 23.5437 116.694 19.2312C116.781 19.0418 116.839 18.8233 116.911 18.6193ZM122.527 26.9237C121.357 27.6959 120.376 28.2058 119.596 28.9197C119.25 29.2402 119.293 29.9978 119.163 30.5515C119.726 30.668 120.419 31.0759 120.809 30.872C122.281 30.0707 123.682 29.1237 125.053 28.1621C126.266 27.3025 126.222 26.4867 124.952 25.6125C123.667 24.7238 122.368 23.7914 120.996 23.0629C120.549 22.8298 119.798 23.1649 119.192 23.2232C119.351 23.8205 119.322 24.6072 119.697 24.9569C120.462 25.6854 121.444 26.1807 122.527 26.8946V26.9237ZM102.749 26.9237C103.86 26.1953 104.828 25.6708 105.607 24.9569C105.968 24.6218 105.983 23.8933 106.141 23.3543C105.549 23.2086 104.799 22.7715 104.395 22.9901C102.922 23.7768 101.522 24.7384 100.15 25.7145C99.0675 26.4721 99.0531 27.3171 100.107 28.0747C101.478 29.0508 102.864 30.0124 104.337 30.7991C104.755 31.0177 105.506 30.6243 106.098 30.5077C105.91 29.925 105.896 29.1674 105.506 28.8032C104.77 28.1038 103.817 27.6376 102.734 26.9237H102.749Z" fill="#0022D5"/>
<path d="M78.5389 81.3105C78.51 84.5012 76.0125 86.9925 72.8509 86.9925C69.6461 86.9925 67.0764 84.3846 67.1197 81.1648C67.1486 78.0324 69.7182 75.4683 72.8365 75.4683C76.0414 75.4683 78.5678 78.0616 78.5389 81.3105ZM72.8365 83.933C74.2801 83.933 75.5217 82.6654 75.5072 81.2085C75.4928 79.7516 74.208 78.4986 72.7788 78.5424C71.3784 78.5861 70.2379 79.7662 70.2091 81.1939C70.1802 82.68 71.3784 83.933 72.8365 83.933Z" fill="#0022D5"/>
<path d="M116.911 18.6195C116.839 18.8235 116.781 19.042 116.694 19.2314C114.615 23.5439 112.522 27.8564 110.429 32.1543C110.386 32.2563 110.357 32.4019 110.27 32.4311C109.823 32.6059 109.361 32.737 108.899 32.8973C108.769 32.4311 108.379 31.8483 108.538 31.5132C110.617 27.0842 112.739 22.6697 114.919 18.2844C115.092 17.9348 115.741 17.7017 116.189 17.658C116.593 17.6142 117.026 17.8911 117.459 18.0222C117.272 18.2261 117.098 18.4155 116.911 18.6195Z" fill="#ECECFD"/>
<path d="M122.527 26.9093C121.43 26.1809 120.462 25.6855 119.697 24.9716C119.322 24.6074 119.351 23.8207 119.192 23.2379C119.798 23.1651 120.549 22.83 120.997 23.0777C122.382 23.8061 123.667 24.724 124.952 25.6273C126.223 26.5014 126.266 27.3173 125.053 28.1769C123.682 29.153 122.281 30.1 120.809 30.8867C120.433 31.0907 119.726 30.6973 119.163 30.5662C119.293 30.0126 119.25 29.255 119.596 28.9345C120.376 28.206 121.357 27.6961 122.527 26.9385V26.9093Z" fill="#ECECFD"/>
<path d="M102.749 26.9239C103.831 27.6378 104.784 28.104 105.521 28.8034C105.91 29.1676 105.925 29.9252 106.112 30.5079C105.521 30.6245 104.77 31.0179 104.351 30.7993C102.879 30.0126 101.478 29.051 100.121 28.0749C99.0674 27.3173 99.0963 26.4869 100.165 25.7147C101.536 24.7386 102.922 23.777 104.409 22.9903C104.813 22.7717 105.564 23.2088 106.156 23.3545C105.982 23.9081 105.982 24.622 105.622 24.9571C104.842 25.671 103.86 26.1809 102.763 26.9239H102.749Z" fill="#ECECFD"/>
<path d="M72.8364 83.933C71.3784 83.933 70.1801 82.6946 70.209 81.194C70.2379 79.7808 71.3784 78.5861 72.7787 78.5424C74.2223 78.4987 75.4927 79.7371 75.5072 81.2085C75.5216 82.6655 74.2945 83.933 72.8364 83.933Z" fill="#0022D5"/>
</g>
<defs>
<clipPath id="clip0_54_198">
<rect width="104" height="105" fill="white" transform="translate(30.9998)"/>
</clipPath>
</defs>
</svg>
